<svg width="59" height="66" viewBox="0 0 59 66" fill="none" xmlns="http://www.w3.org/2000/svg">
<path d="M20.9271 47.8288L29.4999 56.2693L38.0728 47.8288L29.4999 39.3884L20.9271 47.8288ZM29.4999 6.86654V6.87923C27.0463 6.87923 24.5926 7.80154 22.7234 9.64192L22.7148 9.63347C20.8497 11.4738 19.913 13.8938 19.913 16.3139C19.913 18.738 20.8455 21.1538 22.7061 22.9857H22.719L29.4999 29.6577L36.2766 22.9857H36.2895C38.163 21.1411 39.0998 18.7253 39.0998 16.3139H39.0869C39.0869 13.8981 38.1501 11.4823 36.2808 9.64192C34.3987 7.79307 31.945 6.86654 29.4999 6.86654ZM43.0145 52.6942L31.9708 63.5673L29.4999 66L27.029 63.5673L15.9855 52.6942L4.94173 63.5673L0 58.7019L24.5625 34.5231L17.7859 27.8512L17.7945 27.8428C14.5502 24.6526 12.9301 20.4769 12.9301 16.3139C12.9301 12.1465 14.5502 7.975 17.7859 4.78923V4.78076C21.0217 1.59501 25.2629 0 29.4999 0V0.0126925C33.7456 0.0126925 37.9912 1.60346 41.2183 4.78076C44.454 7.96654 46.0698 12.1423 46.0698 16.3181H46.0569C46.0569 20.4896 44.4412 24.6612 41.2097 27.847L41.2183 27.8553L34.4417 34.5231L59 58.7019L54.0582 63.5673L43.0145 52.6942Z" fill="#FFFCF2"/>
</svg>
