<svg width="702" height="346" viewBox="0 0 702 346" fill="none" xmlns="http://www.w3.org/2000/svg">
<path d="M67.9231 201.777L216.755 41.9571L299.661 91.9007L267.697 122.866L394.554 6.99662L577.347 140.845" stroke="#D4C0E2" stroke-width="10"/>
<path d="M169.309 96.895L177.3 107.883L185.291 100.891L202.271 107.883L217.254 96.895L240.228 107.883L247.221 91.9007L268.197 100.891L279.184 81.912" stroke="#D4C0E2" stroke-width="10"/>
<path d="M350.604 49.1989L376.157 37.9616L368.704 58.1888L399.581 49.1989L419.811 64.9311L423.005 44.704L447.494 49.1989" stroke="#D4C0E2" stroke-width="10"/>
<path d="M614.701 29.3907C617.363 22.3765 627.346 22.5539 629.757 29.6582L675.489 164.439C688.501 202.786 659.988 242.57 619.494 242.57C578.111 242.57 549.528 201.154 564.209 162.462L614.701 29.3907Z" fill="#FDC858"/>
<rect x="510.01" y="260.762" width="54.9289" height="8.18995" rx="4.09497" transform="rotate(-92.2506 510.01 260.762)" fill="white" stroke="#5C3F6B" stroke-width="8"/>
<mask id="path-6-inside-1_311_1554" fill="white">
<path fill-rule="evenodd" clip-rule="evenodd" d="M182.433 117.871C171.301 117.871 161.404 124.958 157.819 135.497L133.303 207.557C131.68 212.328 130.852 217.333 130.852 222.372V259.711V301.414L152.331 301.202C152.578 280.727 169.252 264.206 189.786 264.206C210.071 264.206 226.59 280.331 227.224 300.463L378.668 298.968C380.049 279.539 396.249 264.206 416.03 264.206C435.56 264.206 451.599 279.153 453.333 298.232L484.68 297.922C498.939 297.781 510.423 286.183 510.423 271.923V239.209C510.423 222.986 508.218 206.839 503.868 191.21L488.75 136.899C485.62 125.653 475.377 117.871 463.703 117.871H182.433Z"/>
</mask>
<path fill-rule="evenodd" clip-rule="evenodd" d="M182.433 117.871C171.301 117.871 161.404 124.958 157.819 135.497L133.303 207.557C131.68 212.328 130.852 217.333 130.852 222.372V259.711V301.414L152.331 301.202C152.578 280.727 169.252 264.206 189.786 264.206C210.071 264.206 226.59 280.331 227.224 300.463L378.668 298.968C380.049 279.539 396.249 264.206 416.03 264.206C435.56 264.206 451.599 279.153 453.333 298.232L484.68 297.922C498.939 297.781 510.423 286.183 510.423 271.923V239.209C510.423 222.986 508.218 206.839 503.868 191.21L488.75 136.899C485.62 125.653 475.377 117.871 463.703 117.871H182.433Z" fill="#8E63AD"/>
<path d="M157.819 135.497L150.245 132.921L157.819 135.497ZM133.303 207.557L140.877 210.133H140.877L133.303 207.557ZM130.852 301.414H122.852V309.493L130.931 309.413L130.852 301.414ZM152.331 301.202L152.41 309.202L160.236 309.124L160.33 301.299L152.331 301.202ZM227.224 300.463L219.228 300.715L219.475 308.54L227.303 308.462L227.224 300.463ZM378.668 298.968L378.747 306.968L386.124 306.895L386.648 299.536L378.668 298.968ZM453.333 298.232L445.365 298.955L446.033 306.304L453.411 306.231L453.333 298.232ZM484.68 297.922L484.601 289.923L484.68 297.922ZM503.868 191.21L496.161 193.355V193.355L503.868 191.21ZM488.75 136.899L481.043 139.044V139.044L488.75 136.899ZM165.392 138.074C167.874 130.778 174.726 125.871 182.433 125.871V109.871C167.876 109.871 154.933 119.139 150.245 132.921L165.392 138.074ZM140.877 210.133L165.392 138.074L150.245 132.921L125.73 204.98L140.877 210.133ZM138.852 222.372C138.852 218.209 139.536 214.075 140.877 210.133L125.73 204.98C123.824 210.581 122.852 216.456 122.852 222.372H138.852ZM138.852 259.711V222.372H122.852V259.711H138.852ZM138.852 301.414V259.711H122.852V301.414H138.852ZM152.252 293.202L130.773 293.414L130.931 309.413L152.41 309.202L152.252 293.202ZM160.33 301.299C160.525 285.199 173.638 272.206 189.786 272.206V256.206C164.867 256.206 144.631 276.256 144.331 301.105L160.33 301.299ZM189.786 272.206C205.737 272.206 218.73 284.887 219.228 300.715L235.22 300.211C234.451 275.775 214.405 256.206 189.786 256.206V272.206ZM378.589 290.969L227.146 292.463L227.303 308.462L378.747 306.968L378.589 290.969ZM386.648 299.536C387.733 284.264 400.477 272.206 416.03 272.206V256.206C392.021 256.206 372.365 274.814 370.688 298.401L386.648 299.536ZM416.03 272.206C431.385 272.206 444.003 283.96 445.365 298.955L461.3 297.508C459.196 274.346 439.736 256.206 416.03 256.206V272.206ZM484.601 289.923L453.254 290.232L453.411 306.231L484.759 305.922L484.601 289.923ZM502.423 271.923C502.423 281.795 494.472 289.825 484.601 289.923L484.759 305.922C503.405 305.738 518.423 290.57 518.423 271.923H502.423ZM502.423 239.209V271.923H518.423V239.209H502.423ZM496.161 193.355C500.316 208.285 502.423 223.711 502.423 239.209H518.423C518.423 222.261 516.119 205.392 511.575 189.064L496.161 193.355ZM481.043 139.044L496.161 193.355L511.575 189.064L496.457 134.754L481.043 139.044ZM463.703 125.871C471.785 125.871 478.876 131.258 481.043 139.044L496.457 134.754C492.364 120.047 478.969 109.871 463.703 109.871V125.871ZM182.433 125.871H463.703V109.871H182.433V125.871Z" fill="#5C3F6B" mask="url(#path-6-inside-1_311_1554)"/>
<path d="M230.344 288.979L377.508 288.273L375.71 294.855L236.251 296.5L230.344 288.979Z" fill="#774D99"/>
<path d="M219.945 299.699C219.945 315.815 206.492 329.062 189.668 329.062C172.844 329.062 159.391 315.815 159.391 299.699C159.391 283.584 172.844 270.336 189.668 270.336C206.492 270.336 219.945 283.584 219.945 299.699Z" fill="#5C3F6B" stroke="#523160" stroke-width="8"/>
<path d="M446.633 299.699C446.633 315.865 433.333 329.062 416.812 329.062C400.292 329.062 386.992 315.865 386.992 299.699C386.992 283.533 400.292 270.336 416.812 270.336C433.333 270.336 446.633 283.533 446.633 299.699Z" fill="#5C3F6B" stroke="#523160" stroke-width="8"/>
<g filter="url(#filter0_i_311_1554)">
<rect x="297.984" y="134.711" width="102.375" height="58.5" rx="25" fill="#FDC858"/>
</g>
<rect x="301.984" y="138.711" width="94.375" height="50.5" rx="21" stroke="#5C3F6B" stroke-width="8"/>
<g filter="url(#filter1_i_311_1554)">
<path d="M416.812 149.711C416.812 141.427 423.528 134.711 431.812 134.711H435.144C448.665 134.711 460.391 144.054 463.411 157.233L468.853 180.977C470.288 187.239 465.53 193.211 459.105 193.211H431.812C423.528 193.211 416.812 186.495 416.812 178.211V149.711Z" fill="#FDC858"/>
</g>
<path d="M420.812 149.711C420.812 143.636 425.737 138.711 431.812 138.711H435.144C446.8 138.711 456.909 146.765 459.512 158.127L464.954 181.871C465.815 185.628 462.96 189.211 459.105 189.211H431.812C425.737 189.211 420.812 184.286 420.812 178.211V149.711Z" stroke="#5C3F6B" stroke-width="8"/>
<g filter="url(#filter2_d_311_1554)">
<line x1="32.9438" y1="332.608" x2="119.334" y2="332.183" stroke="#5C3F6B" stroke-width="10" stroke-linecap="round"/>
</g>
<g filter="url(#filter3_d_311_1554)">
<line x1="139.823" y1="331.853" x2="282.649" y2="331.149" stroke="#5C3F6B" stroke-width="10" stroke-linecap="round"/>
</g>
<g filter="url(#filter4_d_311_1554)">
<line x1="300.142" y1="331.853" x2="477.428" y2="330.98" stroke="#5C3F6B" stroke-width="10" stroke-linecap="round"/>
</g>
<g filter="url(#filter5_d_311_1554)">
<line x1="492.924" y1="331.853" x2="504.899" y2="331.794" stroke="#5C3F6B" stroke-width="10" stroke-linecap="round"/>
</g>
<g filter="url(#filter6_d_311_1554)">
<line x1="657.738" y1="331.853" x2="669.713" y2="331.794" stroke="#5C3F6B" stroke-width="10" stroke-linecap="round"/>
</g>
<g filter="url(#filter7_d_311_1554)">
<line x1="522.39" y1="331.853" x2="646.238" y2="331.243" stroke="#5C3F6B" stroke-width="10" stroke-linecap="round"/>
</g>
<path d="M203.078 301.527C203.078 308.248 197.26 314.023 189.668 314.023C182.076 314.023 176.258 308.248 176.258 301.527C176.258 294.807 182.076 289.031 189.668 289.031C197.26 289.031 203.078 294.807 203.078 301.527Z" fill="#FDC858" stroke="#523160" stroke-width="7"/>
<mask id="path-22-inside-2_311_1554" fill="white">
<ellipse cx="189.668" cy="301.07" rx="6.85547" ry="7.3125"/>
</mask>
<ellipse cx="189.668" cy="301.07" rx="6.85547" ry="7.3125" fill="#FDC858"/>
<path d="M189.523 301.07C189.523 301.302 189.439 301.421 189.409 301.453C189.395 301.468 189.406 301.451 189.458 301.427C189.516 301.401 189.594 301.383 189.668 301.383V315.383C197.739 315.383 203.523 308.542 203.523 301.07H189.523ZM189.668 301.383C189.742 301.383 189.82 301.401 189.878 301.427C189.93 301.451 189.941 301.468 189.927 301.453C189.896 301.421 189.812 301.302 189.812 301.07H175.812C175.812 308.542 181.597 315.383 189.668 315.383V301.383ZM189.812 301.07C189.812 300.839 189.896 300.72 189.927 300.687C189.941 300.672 189.93 300.69 189.878 300.713C189.82 300.739 189.742 300.758 189.668 300.758V286.758C181.597 286.758 175.812 293.598 175.812 301.07H189.812ZM189.668 300.758C189.594 300.758 189.516 300.739 189.458 300.713C189.406 300.69 189.395 300.672 189.409 300.687C189.439 300.72 189.523 300.839 189.523 301.07H203.523C203.523 293.598 197.739 286.758 189.668 286.758V300.758Z" fill="#523160" mask="url(#path-22-inside-2_311_1554)"/>
<path d="M430.68 301.527C430.68 308.248 424.862 314.023 417.27 314.023C409.678 314.023 403.859 308.248 403.859 301.527C403.859 294.807 409.678 289.031 417.27 289.031C424.862 289.031 430.68 294.807 430.68 301.527Z" fill="#FDC858" stroke="#523160" stroke-width="7"/>
<mask id="path-25-inside-3_311_1554" fill="white">
<ellipse cx="417.27" cy="301.07" rx="6.85547" ry="7.3125"/>
</mask>
<ellipse cx="417.27" cy="301.07" rx="6.85547" ry="7.3125" fill="#FDC858"/>
<path d="M417.125 301.07C417.125 301.302 417.041 301.421 417.01 301.453C416.996 301.468 417.007 301.451 417.059 301.427C417.118 301.401 417.195 301.383 417.27 301.383V315.383C425.34 315.383 431.125 308.542 431.125 301.07H417.125ZM417.27 301.383C417.344 301.383 417.421 301.401 417.48 301.427C417.532 301.451 417.543 301.468 417.529 301.453C417.498 301.421 417.414 301.302 417.414 301.07H403.414C403.414 308.542 409.199 315.383 417.27 315.383V301.383ZM417.414 301.07C417.414 300.839 417.498 300.72 417.529 300.687C417.543 300.672 417.532 300.69 417.48 300.713C417.421 300.739 417.344 300.758 417.27 300.758V286.758C409.199 286.758 403.414 293.598 403.414 301.07H417.414ZM417.27 300.758C417.195 300.758 417.118 300.739 417.059 300.713C417.007 300.69 416.996 300.672 417.01 300.687C417.041 300.72 417.125 300.839 417.125 301.07H431.125C431.125 293.598 425.34 286.758 417.27 286.758V300.758Z" fill="#523160" mask="url(#path-25-inside-3_311_1554)"/>
<line x1="229.859" y1="205.578" x2="257.336" y2="205.578" stroke="#5C3F6B" stroke-width="10" stroke-linecap="round"/>
<line x1="365.141" y1="205.578" x2="381.648" y2="205.578" stroke="#5C3F6B" stroke-width="10" stroke-linecap="round"/>
<line x1="469.344" y1="136.109" x2="475.797" y2="136.109" stroke="#5C3F6B" stroke-width="10" stroke-linecap="round"/>
<line x1="472.086" y1="147.078" x2="478.539" y2="147.078" stroke="#5C3F6B" stroke-width="10" stroke-linecap="round"/>
<g filter="url(#filter8_i_311_1554)">
<path d="M171.381 142.052C172.179 137.796 175.896 134.711 180.227 134.711H251.508C256.478 134.711 260.508 138.74 260.508 143.711V184.211C260.508 189.181 256.478 193.211 251.508 193.211H172.633C166.998 193.211 162.749 188.091 163.788 182.552L171.381 142.052Z" fill="#FDC858"/>
</g>
<path d="M180.227 130.711C173.971 130.711 168.603 135.167 167.45 141.315L159.856 181.815C158.356 189.816 164.494 197.211 172.633 197.211H251.508C258.688 197.211 264.508 191.391 264.508 184.211V143.711C264.508 136.531 258.688 130.711 251.508 130.711H180.227Z" stroke="#5C3F6B" stroke-width="8"/>
<line x1="3" y1="-3" x2="13.6239" y2="-3" transform="matrix(0.651331 -0.758794 0.754844 0.655905 430.014 166.764)" stroke="#64415F" stroke-width="6" stroke-linecap="round"/>
<line x1="3" y1="-3" x2="16.6773" y2="-3" transform="matrix(0.651331 -0.758794 0.754844 0.655905 441.17 166.764)" stroke="#64415F" stroke-width="6" stroke-linecap="round"/>
<line x1="3" y1="-3" x2="13.6239" y2="-3" transform="matrix(0.651331 -0.758794 0.754844 0.655905 311.648 166.764)" stroke="#64415F" stroke-width="6" stroke-linecap="round"/>
<line x1="3" y1="-3" x2="16.6773" y2="-3" transform="matrix(0.651331 -0.758794 0.754844 0.655905 322.804 166.764)" stroke="#64415F" stroke-width="6" stroke-linecap="round"/>
<line x1="3" y1="-3" x2="13.6239" y2="-3" transform="matrix(0.651331 -0.758794 0.754844 0.655905 177.799 166.764)" stroke="#64415F" stroke-width="6" stroke-linecap="round"/>
<line x1="3" y1="-3" x2="16.6773" y2="-3" transform="matrix(0.651331 -0.758794 0.754844 0.655905 188.955 166.764)" stroke="#64415F" stroke-width="6" stroke-linecap="round"/>
<path fill-rule="evenodd" clip-rule="evenodd" d="M272.192 122.272C273.894 122.983 275.232 124.097 276.328 125.863C277.694 128.064 278.725 131.348 279.447 136.297C280.894 146.202 281.024 162.111 280.782 187.673C280.722 194.028 280.639 200.973 280.548 208.562L280.548 208.562C280.274 231.433 279.931 260.148 279.931 296.168L282.933 296.176C282.933 260.176 283.276 231.487 283.549 208.618C283.64 201.025 283.723 194.074 283.783 187.71C284.025 162.232 283.905 146.058 282.417 135.872C281.673 130.774 280.566 127.01 278.878 124.289C277.192 121.571 274.973 119.969 272.192 119.085V122.272Z" fill="#714B88"/>
<rect x="268.734" y="118.258" width="11.8828" height="3.65625" fill="#5C3F6B"/>
<path d="M124.656 230.688C124.656 229.363 125.73 228.289 127.055 228.289C128.379 228.289 129.453 229.363 129.453 230.687V244.398C129.453 245.723 128.379 246.797 127.055 246.797C125.73 246.797 124.656 245.723 124.656 244.398V230.688Z" fill="white" stroke="#5C3F6B" stroke-width="8"/>
<path d="M123.742 274.594C123.742 270.728 126.876 267.594 130.742 267.594H131.281V302.555H130.742C126.876 302.555 123.742 299.421 123.742 295.555V274.594Z" fill="white" stroke="#5C3F6B" stroke-width="8"/>
<path fill-rule="evenodd" clip-rule="evenodd" d="M183.444 121.367C172.119 121.367 162.096 128.699 158.665 139.492L137.008 207.636C135.576 212.142 134.848 216.841 134.848 221.569V257.611V297.668L140.186 297.612V224.03H140.225V221.478C140.225 216.727 140.961 212.004 142.408 207.479L164.141 139.454C167.584 128.68 177.597 121.367 188.908 121.367H183.444Z" fill="#774D99"/>
<path fill-rule="evenodd" clip-rule="evenodd" d="M173.323 120.212C171.666 120.212 170.035 120.37 168.448 120.674V120.212H173.323ZM418.527 260.479C420.133 260.302 421.768 260.21 423.427 260.21C444.185 260.21 461.232 274.51 463.074 292.763L463.476 292.759V292.926L455.381 292.998C453.625 275.504 437.994 261.636 418.527 260.479Z" fill="#774D99"/>
<path fill-rule="evenodd" clip-rule="evenodd" d="M184.713 114.064C183.256 114.065 181.819 114.187 180.415 114.423V114.064H184.713ZM190.785 260.456C212.241 261.421 229.398 277.165 230.077 296.669L237.826 296.6V296.415L237.122 296.421C236.418 276.315 218.087 260.21 195.577 260.21C193.956 260.21 192.357 260.294 190.785 260.456Z" fill="#774D99"/>
<g filter="url(#filter9_i_311_1554)">
<rect x="224.859" y="295.586" width="156.305" height="17.3672" rx="8.68359" fill="white"/>
</g>
<rect x="228.859" y="299.586" width="148.305" height="9.36719" rx="4.68359" stroke="#5C3F6B" stroke-width="8"/>
<line x1="475.742" y1="158.047" x2="482.195" y2="158.047" stroke="#5C3F6B" stroke-width="10" stroke-linecap="round"/>
<path fill-rule="evenodd" clip-rule="evenodd" d="M377.058 123.819H458.313C469.932 123.819 480.141 131.528 483.321 142.705L497.791 193.57C502.323 209.501 504.622 225.985 504.622 242.548V272.064C504.622 285.109 495.009 295.927 482.455 297.783C496.673 297.596 508.111 286.016 508.111 271.785V241.49C508.111 224.932 505.814 208.454 501.285 192.527L486.561 140.755C483.383 129.578 473.173 121.867 461.553 121.867H271.693L377.058 123.819Z" fill="#AA73C2"/>
<g filter="url(#filter10_i_311_1554)">
<rect x="452.461" y="291.016" width="63.0703" height="17.3672" rx="8.68359" fill="white"/>
</g>
<rect x="456.461" y="295.016" width="55.0703" height="9.36719" rx="4.68359" stroke="#5C3F6B" stroke-width="8"/>
<line x1="480.312" y1="169.93" x2="487.68" y2="169.93" stroke="#5C3F6B" stroke-width="10" stroke-linecap="round"/>
<line x1="622.158" y1="215.683" x2="665.17" y2="170.95" stroke="#5C3F6B" stroke-width="10" stroke-linecap="round"/>
<line x1="620.66" y1="159.846" x2="646.96" y2="132.494" stroke="#5C3F6B" stroke-width="10" stroke-linecap="round"/>
<path fill-rule="evenodd" clip-rule="evenodd" d="M629.217 28.9675C626.808 21.8597 616.82 21.6824 614.16 28.7002L563.77 161.651C549.133 200.267 577.662 241.589 618.959 241.589C625 241.589 630.774 240.702 636.182 239.066C604.689 229.536 585.739 194.608 598.231 161.651L638.33 55.8529L629.217 28.9675Z" fill="#FCB037"/>
<line x1="609.386" y1="92.6371" x2="619.26" y2="101.804" stroke="#5C3F6B" stroke-width="10" stroke-linecap="round"/>
<path d="M591.831 133.354L620.393 165.432" stroke="#5C3F6B" stroke-width="10" stroke-linecap="round"/>
<line x1="575.927" y1="172.213" x2="620.405" y2="215.49" stroke="#5C3F6B" stroke-width="10" stroke-linecap="round"/>
<line x1="620.16" y1="101.751" x2="629.499" y2="92.0393" stroke="#5C3F6B" stroke-width="10" stroke-linecap="round"/>
<line x1="622.906" y1="42.8203" x2="622.906" y2="328.062" stroke="#5C3F6B" stroke-width="10" stroke-linecap="round"/>
<line x1="46.4521" y1="221.736" x2="46.9515" y2="332.611" stroke="#5C3F6B" stroke-width="8"/>
<path d="M58.905 210.141C59.2365 210.005 59.4637 210.013 59.6006 210.04C59.7512 210.069 59.886 210.141 59.995 210.246C60.1041 210.351 60.184 210.486 60.2214 210.644C60.2556 210.788 60.2715 211.022 60.1496 211.362C59.012 214.538 57.7512 217.173 56.6065 218.49C54.9469 220.399 53.0754 221.556 51.5576 222.015C49.9799 222.492 49.385 222.097 49.2884 222.013C49.1919 221.929 48.7177 221.395 48.9704 219.766C49.2135 218.199 50.0991 216.185 51.7587 214.275C52.2186 213.746 53.0936 213.054 54.4437 212.274C55.7499 211.519 57.2956 210.798 58.905 210.141Z" fill="#FCB037" stroke="#5C3F6B" stroke-width="8"/>
<path d="M28.5217 213.631C28.3382 213.324 28.3119 213.098 28.3179 212.958C28.3244 212.805 28.3748 212.661 28.4623 212.538C28.5499 212.414 28.6721 212.315 28.8222 212.254C28.9597 212.199 29.1885 212.148 29.5432 212.218C32.8534 212.868 35.6472 213.72 37.1204 214.655C39.2563 216.01 40.6805 217.688 41.3612 219.12C42.0686 220.609 41.7669 221.256 41.6983 221.364C41.6298 221.472 41.1726 222.021 39.5244 222.014C37.9388 222.008 35.8147 221.434 33.6787 220.079C33.0868 219.703 32.271 218.941 31.2977 217.723C30.3559 216.545 29.4122 215.124 28.5217 213.631Z" fill="#FCB037" stroke="#5C3F6B" stroke-width="8"/>
<path d="M57.9062 232.116C58.2378 231.981 58.4649 231.988 58.6018 232.015C58.7524 232.044 58.8872 232.116 58.9962 232.221C59.1053 232.326 59.1852 232.462 59.2226 232.619C59.2569 232.763 59.2728 232.997 59.1509 233.337C58.0132 236.513 56.7524 239.148 55.6078 240.465C53.9481 242.374 52.0766 243.531 50.5588 243.99C48.9811 244.467 48.3862 244.072 48.2896 243.988C48.1931 243.904 47.719 243.37 47.9716 241.741C48.2147 240.174 49.1003 238.16 50.76 236.251C51.2199 235.722 52.0949 235.029 53.4449 234.249C54.7511 233.494 56.2968 232.773 57.9062 232.116Z" fill="#FCB037" stroke="#5C3F6B" stroke-width="8"/>
<path d="M29.8851 252.018C29.7049 251.709 29.6809 251.483 29.6883 251.344C29.6966 251.19 29.7485 251.047 29.8372 250.924C29.9261 250.802 30.0494 250.704 30.2001 250.645C30.3381 250.591 30.5675 250.542 30.9214 250.616C34.2246 251.3 37.0093 252.182 38.4725 253.133C40.5942 254.51 42.0007 256.203 42.6662 257.642C43.358 259.138 43.0495 259.782 42.9798 259.889C42.9102 259.996 42.4472 260.54 40.7992 260.517C39.2137 260.494 37.0957 259.897 34.9741 258.52C34.3862 258.138 33.5785 257.368 32.618 256.139C31.6886 254.951 30.7599 253.521 29.8851 252.018Z" fill="#FCB037" stroke="#5C3F6B" stroke-width="8"/>
<path d="M57.9062 264.579C58.2378 264.444 58.4649 264.452 58.6018 264.478C58.7524 264.508 58.8872 264.579 58.9962 264.684C59.1053 264.789 59.1852 264.925 59.2226 265.082C59.2569 265.227 59.2728 265.46 59.1509 265.801C58.0132 268.976 56.7524 271.611 55.6078 272.928C53.9481 274.837 52.0766 275.995 50.5588 276.453C48.9811 276.93 48.3862 276.535 48.2896 276.451C48.1931 276.367 47.719 275.833 47.9716 274.204C48.2147 272.638 49.1003 270.623 50.76 268.714C51.2199 268.185 52.0949 267.492 53.4449 266.712C54.7511 265.957 56.2968 265.237 57.9062 264.579Z" fill="#FCB037" stroke="#5C3F6B" stroke-width="8"/>
<path d="M30.86 279.5C30.6797 279.19 30.6557 278.964 30.6632 278.825C30.6714 278.672 30.7233 278.528 30.8121 278.406C30.901 278.283 31.0242 278.185 31.1749 278.126C31.3129 278.072 31.5423 278.024 31.8963 278.097C35.1995 278.782 37.9841 279.664 39.4474 280.614C41.569 281.992 42.9755 283.684 43.6411 285.123C44.3329 286.619 44.0244 287.263 43.9547 287.371C43.885 287.478 43.4221 288.022 41.7741 287.998C40.1886 287.976 38.0706 287.379 35.949 286.001C35.361 285.619 34.5533 284.849 33.5928 283.621C32.6635 282.433 31.7348 281.002 30.86 279.5Z" fill="#FCB037" stroke="#5C3F6B" stroke-width="8"/>
<path d="M58.905 290.55C59.2365 290.415 59.4637 290.422 59.6006 290.449C59.7512 290.478 59.886 290.55 59.995 290.655C60.1041 290.76 60.184 290.896 60.2214 291.053C60.2556 291.197 60.2715 291.431 60.1496 291.771C59.012 294.947 57.7512 297.582 56.6065 298.899C54.9469 300.808 53.0754 301.965 51.5576 302.424C49.9799 302.901 49.385 302.506 49.2884 302.422C49.1919 302.338 48.7177 301.804 48.9704 300.175C49.2135 298.608 50.0991 296.594 51.7587 294.685C52.2186 294.156 53.0936 293.463 54.4437 292.683C55.7499 291.928 57.2956 291.207 58.905 290.55Z" fill="#FCB037" stroke="#5C3F6B" stroke-width="8"/>
<line x1="5" y1="-5" x2="9.56903" y2="-5" transform="matrix(0.659241 0.751932 -0.565528 0.824729 96.3909 8.02822)" stroke="#D4C0E2" stroke-width="10" stroke-linecap="round"/>
<line x1="5" y1="-5" x2="9.42484" y2="-5" transform="matrix(-0.688201 0.72552 -0.535325 -0.844646 113.372 4)" stroke="#D4C0E2" stroke-width="10" stroke-linecap="round"/>
<line x1="5" y1="-5" x2="7.91615" y2="-5" transform="matrix(0.794084 0.607809 -0.437189 0.89937 152.427 19.5639)" stroke="#D4C0E2" stroke-width="10" stroke-linecap="round"/>
<line x1="5" y1="-5" x2="7.81412" y2="-5" transform="matrix(-0.574296 0.818648 -0.689219 -0.724554 167.081 13.4677)" stroke="#D4C0E2" stroke-width="10" stroke-linecap="round"/>
<line x1="5" y1="-5" x2="5.49306" y2="-5" transform="matrix(0.845651 0.533737 -0.769138 0.639083 128.688 64.0867)" stroke="#D4C0E2" stroke-width="10" stroke-linecap="round"/>
<line x1="5" y1="-5" x2="5.22927" y2="-5" transform="matrix(-0.55405 0.832483 -0.95929 -0.282423 140.66 60.0325)" stroke="#D4C0E2" stroke-width="10" stroke-linecap="round"/>
<path d="M12.9789 85.1775L111.866 85.8984" stroke="#D4C0E2" stroke-width="6" stroke-linecap="round"/>
<mask id="path-76-inside-4_311_1554" fill="white">
<path d="M9.73986 58.6618C9.44681 52.1675 11.4457 45.7768 15.3871 40.6069C19.3286 35.4371 24.9617 31.817 31.3018 30.3797C37.6418 28.9423 44.2854 29.7791 50.071 32.7437C55.8566 35.7084 60.4161 40.6122 62.9524 46.598L59.9504 47.87C57.7124 42.5883 53.6892 38.2612 48.5841 35.6453C43.4791 33.0294 37.6169 32.291 32.0226 33.5593C26.4283 34.8276 21.4578 38.0219 17.9799 42.5836C14.5021 47.1454 12.7383 52.7844 12.9969 58.5149L9.73986 58.6618Z"/>
</mask>
<path d="M9.73986 58.6618C9.44681 52.1675 11.4457 45.7768 15.3871 40.6069C19.3286 35.4371 24.9617 31.817 31.3018 30.3797C37.6418 28.9423 44.2854 29.7791 50.071 32.7437C55.8566 35.7084 60.4161 40.6122 62.9524 46.598L59.9504 47.87C57.7124 42.5883 53.6892 38.2612 48.5841 35.6453C43.4791 33.0294 37.6169 32.291 32.0226 33.5593C26.4283 34.8276 21.4578 38.0219 17.9799 42.5836C14.5021 47.1454 12.7383 52.7844 12.9969 58.5149L9.73986 58.6618Z" fill="#D9D9D9" stroke="#D4C0E2" stroke-width="20" mask="url(#path-76-inside-4_311_1554)"/>
<mask id="path-77-inside-5_311_1554" fill="white">
<path d="M15.7322 86.4069C11.9865 87.4147 7.21255 84.924 4.52224 82.2795C1.83192 79.635 0.221028 76.0212 0.0211064 72.1818C-0.178815 68.3423 1.04744 64.5695 3.4475 61.6397C5.84756 58.7098 9.23881 56.846 12.9233 56.4318L13.1931 59.0154C10.1459 59.358 7.34109 60.8995 5.3561 63.3226C3.3711 65.7457 2.35691 68.8661 2.52226 72.0416C2.68761 75.217 4.01991 78.2059 6.24496 80.393C8.47002 82.5802 11.2373 83.66 14.4836 83.7992L15.7322 86.4069Z"/>
</mask>
<path d="M15.7322 86.4069C11.9865 87.4147 7.21255 84.924 4.52224 82.2795C1.83192 79.635 0.221028 76.0212 0.0211064 72.1818C-0.178815 68.3423 1.04744 64.5695 3.4475 61.6397C5.84756 58.7098 9.23881 56.846 12.9233 56.4318L13.1931 59.0154C10.1459 59.358 7.34109 60.8995 5.3561 63.3226C3.3711 65.7457 2.35691 68.8661 2.52226 72.0416C2.68761 75.217 4.01991 78.2059 6.24496 80.393C8.47002 82.5802 11.2373 83.66 14.4836 83.7992L15.7322 86.4069Z" fill="#D9D9D9"/>
<path d="M15.7322 86.4069L38.0761 169.454L137.976 142.575L93.2991 49.2668L15.7322 86.4069ZM12.9233 56.4318L98.458 47.498L89.4535 -38.7141L3.31507 -29.0298L12.9233 56.4318ZM13.1931 59.0154L22.8013 144.477L107.591 134.944L98.7278 50.0816L13.1931 59.0154ZM14.4836 83.7992L92.0505 46.6591L69.7528 0.0904427L18.1685 -2.12183L14.4836 83.7992ZM-6.61162 3.36017C16.7254 -2.91869 35.1236 3.14613 42.6306 6.25435C51.1994 9.8022 58.5552 14.8011 64.8088 20.9482L-55.7644 143.611C-46.8204 152.402 -35.7325 159.969 -23.1677 165.171C-11.6647 169.934 10.9933 176.74 38.0761 169.454L-6.61162 3.36017ZM64.8088 20.9482C77.7855 33.7038 85.0095 50.5165 85.9048 67.7097L-85.8625 76.6538C-84.5674 101.526 -74.1216 125.566 -55.7644 143.611L64.8088 20.9482ZM85.9048 67.7097C86.7995 84.8934 81.3679 102.231 69.975 116.138L-63.08 7.14113C-79.273 26.9082 -87.1572 51.7912 -85.8625 76.6538L85.9048 67.7097ZM69.975 116.138C58.5054 130.139 41.6603 139.743 22.5315 141.893L3.31507 -29.0298C-23.1827 -26.0507 -46.8103 -12.7197 -63.08 7.14113L69.975 116.138ZM-72.6114 65.3656L-72.3416 67.9492L98.7278 50.0816L98.458 47.498L-72.6114 65.3656ZM3.58491 -26.4462C-22.2756 -23.5387 -45.3167 -10.5301 -61.1714 8.8241L71.8836 117.821C59.9989 132.329 42.5673 142.255 22.8013 144.477L3.58491 -26.4462ZM-61.1714 8.8241C-76.9493 28.0845 -84.6214 52.3151 -83.3614 76.5136L88.4059 67.5695C89.3353 85.4172 83.6915 103.407 71.8836 117.821L-61.1714 8.8241ZM-83.3614 76.5136C-82.1009 100.722 -71.9336 124.137 -54.0416 141.724L66.5316 19.0617C79.9734 32.2747 87.4761 49.7123 88.4059 67.5695L-83.3614 76.5136ZM-54.0416 141.724C-34.7034 160.733 -10.8264 168.793 10.7988 169.72L18.1685 -2.12183C25.0629 -1.82615 33.4739 -0.429882 42.4417 3.22536C51.5732 6.9473 59.7491 12.3948 66.5316 19.0617L-54.0416 141.724ZM-63.0832 120.939L-61.8346 123.547L93.2991 49.2668L92.0505 46.6591L-63.0832 120.939Z" fill="#D4C0E2" mask="url(#path-77-inside-5_311_1554)"/>
<mask id="path-79-inside-6_311_1554" fill="white">
<path d="M59.9321 47.8575C63.1691 45.5774 66.4392 44.2911 70.429 43.9548C74.4188 43.6186 78.4464 44.337 82.0992 46.0365C85.752 47.7359 88.8986 50.3552 91.2166 53.6261C93.5346 56.897 94.9407 60.7018 95.2907 64.6507L92.6452 65.8371C92.3422 62.4193 90.7401 58.1482 88.7338 55.3171C86.7275 52.4861 84.004 50.219 80.8424 48.7481C77.6808 47.2772 74.1948 46.6554 70.7415 46.9464C67.2883 47.2374 63.7327 48.3812 60.931 50.3546L59.9321 47.8575Z"/>
</mask>
<path d="M59.9321 47.8575C63.1691 45.5774 66.4392 44.2911 70.429 43.9548C74.4188 43.6186 78.4464 44.337 82.0992 46.0365C85.752 47.7359 88.8986 50.3552 91.2166 53.6261C93.5346 56.897 94.9407 60.7018 95.2907 64.6507L92.6452 65.8371C92.3422 62.4193 90.7401 58.1482 88.7338 55.3171C86.7275 52.4861 84.004 50.219 80.8424 48.7481C77.6808 47.2772 74.1948 46.6554 70.7415 46.9464C67.2883 47.2374 63.7327 48.3812 60.931 50.3546L59.9321 47.8575Z" fill="#D9D9D9"/>
<path d="M59.9321 47.8575L54.1736 39.6819L47.712 44.2332L50.6474 51.5714L59.9321 47.8575ZM95.2907 64.6507L99.3828 73.7751L105.881 70.861L105.252 63.7676L95.2907 64.6507ZM92.6452 65.8371L82.6842 66.7202L83.9242 80.7079L96.7372 74.9616L92.6452 65.8371ZM60.931 50.3546L51.6462 54.0686L56.3454 65.8162L66.6895 58.5302L60.931 50.3546ZM65.6906 56.033C67.6097 54.6813 69.2044 54.0935 71.2687 53.9195L69.5893 33.9902C63.6739 34.4886 58.7286 36.4736 54.1736 39.6819L65.6906 56.033ZM71.2687 53.9195C73.5118 53.7305 75.7969 54.1337 77.881 55.1032L86.3174 36.9697C81.0959 34.5404 75.3257 33.5068 69.5893 33.9902L71.2687 53.9195ZM77.881 55.1032C79.9651 56.0729 81.7505 57.5636 83.0577 59.4082L99.3755 47.844C96.0467 43.1469 91.5389 39.3989 86.3174 36.9697L77.881 55.1032ZM83.0577 59.4082C84.364 61.2515 85.1379 63.3693 85.3298 65.5337L105.252 63.7676C104.743 58.0342 102.705 52.5425 99.3755 47.844L83.0577 59.4082ZM91.1987 55.5262L88.5531 56.7127L96.7372 74.9616L99.3828 73.7751L91.1987 55.5262ZM102.606 64.9541C102.141 59.7135 99.888 53.7616 96.8927 49.5351L80.5749 61.0992C81.5922 62.5347 82.5428 65.1251 82.6842 66.7202L102.606 64.9541ZM96.8927 49.5351C93.8756 45.2777 89.7909 41.882 85.0607 39.6813L76.6242 57.8149C78.2171 58.556 79.5794 59.6945 80.5749 61.0992L96.8927 49.5351ZM85.0607 39.6813C80.3303 37.4806 75.1018 36.5435 69.9018 36.9817L71.5813 56.9111C73.2879 56.7673 75.0314 57.0738 76.6242 57.8149L85.0607 39.6813ZM69.9018 36.9817C64.9737 37.397 59.6498 39.0255 55.1725 42.1791L66.6895 58.5302C67.8156 57.737 69.6028 57.0778 71.5813 56.9111L69.9018 36.9817ZM70.2157 46.6407L69.2169 44.1435L50.6474 51.5714L51.6462 54.0686L70.2157 46.6407Z" fill="#D4C0E2" mask="url(#path-79-inside-6_311_1554)"/>
<mask id="path-81-inside-7_311_1554" fill="white">
<path d="M112.739 87.1046C113.874 85.458 114.645 83.5859 115.004 81.6023C115.364 79.6187 115.305 77.5652 114.831 75.5668C114.357 73.5684 113.478 71.6669 112.247 69.9783C111.016 68.2896 109.46 66.8491 107.673 65.7445C105.885 64.6399 103.904 63.8942 101.851 63.5531C99.7968 63.2119 97.7131 63.2822 95.7265 63.7599C93.7399 64.2375 91.8919 65.1125 90.2951 66.3314C88.6983 67.5503 87.386 69.0877 86.4384 70.8499L89.1282 72.3324C89.8878 70.9199 90.9396 69.6877 92.2194 68.7107C93.4993 67.7337 94.9806 67.0324 96.5729 66.6496C98.1652 66.2667 99.8353 66.2103 101.481 66.4838C103.128 66.7573 104.715 67.3549 106.148 68.2403C107.581 69.1257 108.828 70.2803 109.814 71.6338C110.801 72.9872 111.505 74.5113 111.885 76.1131C112.265 77.7148 112.313 79.3608 112.024 80.9507C111.736 82.5406 111.119 84.0411 110.209 85.3609L112.739 87.1046Z"/>
</mask>
<path d="M112.739 87.1046C113.874 85.458 114.645 83.5859 115.004 81.6023C115.364 79.6187 115.305 77.5652 114.831 75.5668C114.357 73.5684 113.478 71.6669 112.247 69.9783C111.016 68.2896 109.46 66.8491 107.673 65.7445C105.885 64.6399 103.904 63.8942 101.851 63.5531C99.7968 63.2119 97.7131 63.2822 95.7265 63.7599C93.7399 64.2375 91.8919 65.1125 90.2951 66.3314C88.6983 67.5503 87.386 69.0877 86.4384 70.8499L89.1282 72.3324C89.8878 70.9199 90.9396 69.6877 92.2194 68.7107C93.4993 67.7337 94.9806 67.0324 96.5729 66.6496C98.1652 66.2667 99.8353 66.2103 101.481 66.4838C103.128 66.7573 104.715 67.3549 106.148 68.2403C107.581 69.1257 108.828 70.2803 109.814 71.6338C110.801 72.9872 111.505 74.5113 111.885 76.1131C112.265 77.7148 112.313 79.3608 112.024 80.9507C111.736 82.5406 111.119 84.0411 110.209 85.3609L112.739 87.1046Z" fill="#D9D9D9" stroke="#D4C0E2" stroke-width="20" mask="url(#path-81-inside-7_311_1554)"/>
<defs>
<filter id="filter0_i_311_1554" x="297.984" y="134.711" width="102.375" height="58.5" filterUnits="userSpaceOnUse" color-interpolation-filters="sRGB">
<feFlood flood-opacity="0" result="BackgroundImageFix"/>
<feBlend mode="normal" in="SourceGraphic" in2="BackgroundImageFix" result="shape"/>
<feColorMatrix in="SourceAlpha" type="matrix" values="0 0 0 0 0 0 0 0 0 0 0 0 0 0 0 0 0 0 127 0" result="hardAlpha"/>
<feOffset dx="38" dy="19"/>
<feComposite in2="hardAlpha" operator="arithmetic" k2="-1" k3="1"/>
<feColorMatrix type="matrix" values="0 0 0 0 0.988235 0 0 0 0 0.690196 0 0 0 0 0.215686 0 0 0 1 0"/>
<feBlend mode="normal" in2="shape" result="effect1_innerShadow_311_1554"/>
</filter>
<filter id="filter1_i_311_1554" x="416.812" y="134.711" width="52.2971" height="58.5" filterUnits="userSpaceOnUse" color-interpolation-filters="sRGB">
<feFlood flood-opacity="0" result="BackgroundImageFix"/>
<feBlend mode="normal" in="SourceGraphic" in2="BackgroundImageFix" result="shape"/>
<feColorMatrix in="SourceAlpha" type="matrix" values="0 0 0 0 0 0 0 0 0 0 0 0 0 0 0 0 0 0 127 0" result="hardAlpha"/>
<feOffset dx="22" dy="16"/>
<feComposite in2="hardAlpha" operator="arithmetic" k2="-1" k3="1"/>
<feColorMatrix type="matrix" values="0 0 0 0 0.988235 0 0 0 0 0.690196 0 0 0 0 0.215686 0 0 0 1 0"/>
<feBlend mode="normal" in2="shape" result="effect1_innerShadow_311_1554"/>
</filter>
<filter id="filter2_d_311_1554" x="23.9438" y="327.183" width="104.39" height="18.4256" filterUnits="userSpaceOnUse" color-interpolation-filters="sRGB">
<feFlood flood-opacity="0" result="BackgroundImageFix"/>
<feColorMatrix in="SourceAlpha" type="matrix" values="0 0 0 0 0 0 0 0 0 0 0 0 0 0 0 0 0 0 127 0" result="hardAlpha"/>
<feOffset dy="4"/>
<feGaussianBlur stdDeviation="2"/>
<feComposite in2="hardAlpha" operator="out"/>
<feColorMatrix type="matrix" values="0 0 0 0 0 0 0 0 0 0 0 0 0 0 0 0 0 0 0.25 0"/>
<feBlend mode="normal" in2="BackgroundImageFix" result="effect1_dropShadow_311_1554"/>
<feBlend mode="normal" in="SourceGraphic" in2="effect1_dropShadow_311_1554" result="shape"/>
</filter>
<filter id="filter3_d_311_1554" x="130.823" y="326.149" width="160.825" height="18.7036" filterUnits="userSpaceOnUse" color-interpolation-filters="sRGB">
<feFlood flood-opacity="0" result="BackgroundImageFix"/>
<feColorMatrix in="SourceAlpha" type="matrix" values="0 0 0 0 0 0 0 0 0 0 0 0 0 0 0 0 0 0 127 0" result="hardAlpha"/>
<feOffset dy="4"/>
<feGaussianBlur stdDeviation="2"/>
<feComposite in2="hardAlpha" operator="out"/>
<feColorMatrix type="matrix" values="0 0 0 0 0 0 0 0 0 0 0 0 0 0 0 0 0 0 0.25 0"/>
<feBlend mode="normal" in2="BackgroundImageFix" result="effect1_dropShadow_311_1554"/>
<feBlend mode="normal" in="SourceGraphic" in2="effect1_dropShadow_311_1554" result="shape"/>
</filter>
<filter id="filter4_d_311_1554" x="291.142" y="325.98" width="195.286" height="18.8733" filterUnits="userSpaceOnUse" color-interpolation-filters="sRGB">
<feFlood flood-opacity="0" result="BackgroundImageFix"/>
<feColorMatrix in="SourceAlpha" type="matrix" values="0 0 0 0 0 0 0 0 0 0 0 0 0 0 0 0 0 0 127 0" result="hardAlpha"/>
<feOffset dy="4"/>
<feGaussianBlur stdDeviation="2"/>
<feComposite in2="hardAlpha" operator="out"/>
<feColorMatrix type="matrix" values="0 0 0 0 0 0 0 0 0 0 0 0 0 0 0 0 0 0 0.25 0"/>
<feBlend mode="normal" in2="BackgroundImageFix" result="effect1_dropShadow_311_1554"/>
<feBlend mode="normal" in="SourceGraphic" in2="effect1_dropShadow_311_1554" result="shape"/>
</filter>
<filter id="filter5_d_311_1554" x="483.924" y="326.794" width="29.9751" height="18.059" filterUnits="userSpaceOnUse" color-interpolation-filters="sRGB">
<feFlood flood-opacity="0" result="BackgroundImageFix"/>
<feColorMatrix in="SourceAlpha" type="matrix" values="0 0 0 0 0 0 0 0 0 0 0 0 0 0 0 0 0 0 127 0" result="hardAlpha"/>
<feOffset dy="4"/>
<feGaussianBlur stdDeviation="2"/>
<feComposite in2="hardAlpha" operator="out"/>
<feColorMatrix type="matrix" values="0 0 0 0 0 0 0 0 0 0 0 0 0 0 0 0 0 0 0.25 0"/>
<feBlend mode="normal" in2="BackgroundImageFix" result="effect1_dropShadow_311_1554"/>
<feBlend mode="normal" in="SourceGraphic" in2="effect1_dropShadow_311_1554" result="shape"/>
</filter>
<filter id="filter6_d_311_1554" x="648.738" y="326.794" width="29.975" height="18.059" filterUnits="userSpaceOnUse" color-interpolation-filters="sRGB">
<feFlood flood-opacity="0" result="BackgroundImageFix"/>
<feColorMatrix in="SourceAlpha" type="matrix" values="0 0 0 0 0 0 0 0 0 0 0 0 0 0 0 0 0 0 127 0" result="hardAlpha"/>
<feOffset dy="4"/>
<feGaussianBlur stdDeviation="2"/>
<feComposite in2="hardAlpha" operator="out"/>
<feColorMatrix type="matrix" values="0 0 0 0 0 0 0 0 0 0 0 0 0 0 0 0 0 0 0.25 0"/>
<feBlend mode="normal" in2="BackgroundImageFix" result="effect1_dropShadow_311_1554"/>
<feBlend mode="normal" in="SourceGraphic" in2="effect1_dropShadow_311_1554" result="shape"/>
</filter>
<filter id="filter7_d_311_1554" x="513.39" y="326.243" width="141.847" height="18.6101" filterUnits="userSpaceOnUse" color-interpolation-filters="sRGB">
<feFlood flood-opacity="0" result="BackgroundImageFix"/>
<feColorMatrix in="SourceAlpha" type="matrix" values="0 0 0 0 0 0 0 0 0 0 0 0 0 0 0 0 0 0 127 0" result="hardAlpha"/>
<feOffset dy="4"/>
<feGaussianBlur stdDeviation="2"/>
<feComposite in2="hardAlpha" operator="out"/>
<feColorMatrix type="matrix" values="0 0 0 0 0 0 0 0 0 0 0 0 0 0 0 0 0 0 0.25 0"/>
<feBlend mode="normal" in2="BackgroundImageFix" result="effect1_dropShadow_311_1554"/>
<feBlend mode="normal" in="SourceGraphic" in2="effect1_dropShadow_311_1554" result="shape"/>
</filter>
<filter id="filter8_i_311_1554" x="155.628" y="126.711" width="112.88" height="74.5" filterUnits="userSpaceOnUse" color-interpolation-filters="sRGB">
<feFlood flood-opacity="0" result="BackgroundImageFix"/>
<feBlend mode="normal" in="SourceGraphic" in2="BackgroundImageFix" result="shape"/>
<feColorMatrix in="SourceAlpha" type="matrix" values="0 0 0 0 0 0 0 0 0 0 0 0 0 0 0 0 0 0 127 0" result="hardAlpha"/>
<feOffset dx="38" dy="16"/>
<feComposite in2="hardAlpha" operator="arithmetic" k2="-1" k3="1"/>
<feColorMatrix type="matrix" values="0 0 0 0 0.988235 0 0 0 0 0.690196 0 0 0 0 0.215686 0 0 0 1 0"/>
<feBlend mode="normal" in2="shape" result="effect1_innerShadow_311_1554"/>
</filter>
<filter id="filter9_i_311_1554" x="224.859" y="295.586" width="156.305" height="17.3672" filterUnits="userSpaceOnUse" color-interpolation-filters="sRGB">
<feFlood flood-opacity="0" result="BackgroundImageFix"/>
<feBlend mode="normal" in="SourceGraphic" in2="BackgroundImageFix" result="shape"/>
<feColorMatrix in="SourceAlpha" type="matrix" values="0 0 0 0 0 0 0 0 0 0 0 0 0 0 0 0 0 0 127 0" result="hardAlpha"/>
<feOffset dy="15"/>
<feComposite in2="hardAlpha" operator="arithmetic" k2="-1" k3="1"/>
<feColorMatrix type="matrix" values="0 0 0 0 0.847059 0 0 0 0 0.847059 0 0 0 0 0.847059 0 0 0 1 0"/>
<feBlend mode="normal" in2="shape" result="effect1_innerShadow_311_1554"/>
</filter>
<filter id="filter10_i_311_1554" x="452.461" y="291.016" width="63.0703" height="17.3672" filterUnits="userSpaceOnUse" color-interpolation-filters="sRGB">
<feFlood flood-opacity="0" result="BackgroundImageFix"/>
<feBlend mode="normal" in="SourceGraphic" in2="BackgroundImageFix" result="shape"/>
<feColorMatrix in="SourceAlpha" type="matrix" values="0 0 0 0 0 0 0 0 0 0 0 0 0 0 0 0 0 0 127 0" result="hardAlpha"/>
<feOffset dy="14"/>
<feComposite in2="hardAlpha" operator="arithmetic" k2="-1" k3="1"/>
<feColorMatrix type="matrix" values="0 0 0 0 0.847059 0 0 0 0 0.847059 0 0 0 0 0.847059 0 0 0 1 0"/>
<feBlend mode="normal" in2="shape" result="effect1_innerShadow_311_1554"/>
</filter>
</defs>
</svg>
